<?xml version="1.0" encoding="UTF-8" standalone="no"?>
<!-- Created with Inkscape (http://www.inkscape.org/) -->

<svg
   version="1.1"
   id="svg711"
   width="2589.4917"
   height="2474.1997"
   viewBox="0 0 995.95839 951.61527"
   xml:space="preserve"
   xmlns="http://www.w3.org/2000/svg"
   xmlns:svg="http://www.w3.org/2000/svg"><defs
     id="defs715" /><g
     id="layer10"
     transform="matrix(2.7128911,0,0,2.7128911,-322.0407,-331.59839)"><g
       id="g741"><path
         id="path1548-9-31-1-0"
         style="display:inline;fill:#7a9900;fill-opacity:1;stroke:#7a9900;stroke-width:11.2795;stroke-dasharray:none;stroke-opacity:1"
         d="m 232.78092,277.67787 c -3.89114,-0.002 -3.60564,-0.0312 -6.78034,0.83072 -4.41496,12.20358 5.02204,27.3774 24.07945,23.88973 17.80592,-3.25868 21.21573,-24.27288 13.11442,-34.3913 -6.28871,-7.85441 -21.85537,-9.93949 -27.40511,-1.95661 -2.04552,2.94222 -2.41078,7.9105 -2.365,11.62772 z M 222.4417,298.6806 c -13.67401,-19.18838 2.39939,-49.67805 30.66966,-45.37974 25.9933,3.95216 25.71333,36.94828 13.2813,48.29043 -11.6704,10.647 -31.46737,14.60736 -43.95096,-2.91069 z" /><path
         style="fill:none;fill-opacity:1;stroke:#7a9900;stroke-width:21.5137;stroke-dasharray:none;stroke-opacity:1"
         d="m 282.05553,176.78305 c 0,0 9.73539,55.8356 12.87251,83.6523 3.13708,27.81701 -0.39854,44.02349 -3.96306,79.83467 -3.5645,35.81103 9.4397,82.50062 9.4397,82.50062"
         id="path1630-9-1-0-0-1-4" /><path
         style="display:inline;fill:#7a9900;fill-opacity:1;stroke:#7a9900;stroke-width:13.995;stroke-dasharray:none;stroke-opacity:1"
         d="m 363.45617,298.80868 c 18.5389,-23.04222 42.65692,-11.53101 49.94893,2.23748 7.89533,14.90738 -0.80798,41.85153 -23.91005,38.51044 -23.10208,-3.34111 -25.11617,-23.25854 -14.31499,-35.2572 l 3.95426,5.27944 c -8.63576,11.02849 1.16947,24.39085 11.7401,24.98442 10.57064,0.59357 21.43777,-7.54614 20.84916,-21.6132 -0.58867,-14.06742 -8.21523,-20.65045 -20.88069,-21.90584 -12.66546,-1.25539 -19.73266,15.34758 -19.73266,15.34758 z"
         id="path1548-0-3-5-5-0" /><path
         id="path1548-9-3-2-4-7-9-3-0-0-5"
         style="display:inline;fill:none;fill-opacity:0;stroke:#7a9900;stroke-width:23;stroke-dasharray:none;stroke-opacity:1"
         d="m 186.51237,423.16728 c -62.47449,-54.6168 -81.41199,-181.7934 -13.0172,-241.342 85.9449,-74.8287 176.92471,-54.7484 239.845,8.2061 52.67819,52.7068 39.7931,142.92 24.46939,184.1653 12.39751,28.7507 29.86541,73.9661 29.86541,73.9661 0,0 -44.77611,-8.3372 -82.30931,-14.8095 -50.43218,37.7567 -142.30059,39.2538 -198.85329,-10.186 z" /><path
         style="fill:none;fill-opacity:1;stroke:#7a9900;stroke-width:19.6536;stroke-dasharray:none;stroke-opacity:1"
         d="m 336.9873,406.80938 c 0,0 17.94933,-3.52769 19.62938,-28.46872 1.68005,-24.94103 -17.94327,-34.56487 -24.48867,-57.67728 -2.31426,-20.64532 13.86624,-28.66893 10.44995,-50.40935 -3.41629,-21.74042 -30.24231,-25.2348 -30.24231,-25.2348"
         id="path892-3-1-8-97-7" /><path
         style="display:inline;fill:none;fill-opacity:1;stroke:#7a9900;stroke-width:20.1689;stroke-dasharray:none;stroke-opacity:1"
         d="m 193.02463,382.4303 c 0,0 18.76814,-4.47147 23.61015,-29.5775 4.84199,-25.10587 -20.61347,-35.54533 -24.00997,-58.5255 -2.31432,-20.64533 14.934,-41.85809 6.52634,-57.10958 -8.40769,-15.25156 -30.7782,-16.57747 -30.7782,-16.57747"
         id="path892-9-4-53-0" /></g></g></svg>
